<?xml version="1.0" encoding="UTF-8"?>
<svg width="12px" height="11px" viewBox="0 0 12 11" version="1.1" xmlns="http://www.w3.org/2000/svg" xmlns:xlink="http://www.w3.org/1999/xlink">
    <!-- Generator: Sketch 60.1 (88133) - https://sketch.com -->
    <title>icon/cross</title>
    <desc>Created with Sketch.</desc>
    <g id="Page-1" stroke="none" stroke-width="1" fill="none" fill-rule="evenodd" opacity="0.800000012">
        <g id="Screen-9" transform="translate(-757.000000, -403.000000)" fill="#12344D">
            <g id="Group-4" transform="translate(710.000000, 325.000000)">
                <g id="Group-5-Copy" transform="translate(41.000000, 72.000000)">
                    <g id="icon/cross" transform="translate(7.000000, 7.000000)">
                        <g id="cross" transform="translate(-0.666667, -0.666667)">
                            <path d="M2.63333333,0.95 L5.6724887,3.98982203 L8.71666667,0.966666667 C9.17690396,0.506429375 9.92309604,0.506429375 10.3833333,0.966666667 C10.8435706,1.42690396 10.8435706,2.17309604 10.3833333,2.63333333 L7.3424887,5.65982203 L10.3833333,8.7 C10.7055952,9.03741128 10.7995043,9.53269106 10.6231213,9.96464953 C10.4467383,10.396608 10.0329947,10.6845963 9.56666667,10.7 L9.55,10.6666667 C9.2364779,10.6667115 8.93613214,10.5405662 8.71666667,10.3166667 L5.6884887,7.30682203 L2.61666667,10.3666667 C2.38912135,10.5723172 2.0897461,10.6800923 1.78333333,10.6666667 C1.31700532,10.6512629 0.903261744,10.3632747 0.726878704,9.9313162 C0.550495665,9.49935773 0.644404789,9.00407795 0.966666667,8.66666667 L4.0114887,5.64082203 L0.966666667,2.61666667 C0.506429375,2.15642938 0.506429375,1.41023729 0.966666667,0.95 C1.42690396,0.489762708 2.17309604,0.489762708 2.63333333,0.95 Z" id="Combined-Shape"></path>
                        </g>
                    </g>
                </g>
            </g>
        </g>
    </g>
</svg>