<?xml version="1.0" encoding="UTF-8"?>
<svg width="12px" height="12px" viewBox="0 0 12 12" version="1.1" xmlns="http://www.w3.org/2000/svg" xmlns:xlink="http://www.w3.org/1999/xlink">
    <!-- Generator: Sketch 60.1 (88133) - https://sketch.com -->
    <title>icon/edit</title>
    <desc>Created with Sketch.</desc>
    <g id="Page-1" stroke="none" stroke-width="1" fill="none" fill-rule="evenodd">
        <g id="Screen-9" transform="translate(-1193.000000, -138.000000)" fill="#12344D">
            <g id="Group-3" transform="translate(1181.000000, 132.000000)">
                <g id="Group-2" transform="translate(12.000000, 2.000000)">
                    <g id="icon/edit" transform="translate(0.000000, 4.000000)">
                        <g id="edit" transform="translate(-0.857143, -0.857143)">
                            <path d="M12.3342857,2.21142857 L11.4771429,1.35428571 C10.7706814,0.676164652 9.65503293,0.676164652 8.94857143,1.35428571 L1.44857143,8.90571429 C1.35833574,9.00022045 1.29860638,9.11967918 1.27714286,9.24857143 L0.857142857,12.1714286 C0.829166456,12.3578014 0.893030295,12.5461997 1.02857143,12.6771429 C1.13967676,12.7948608 1.29530215,12.8602235 1.45714286,12.857247 L1.54285714,12.857247 L4.46571429,12.4371429 C4.59378662,12.4186031 4.71328227,12.3618427 4.80857143,12.2742857 L11.2457143,5.82857143 L11.2457143,5.82857143 L12.3257143,4.74857143 C12.6639374,4.41360506 12.8549362,3.95779859 12.8565546,3.48177887 C12.8581525,3.00575914 12.6702379,2.54867255 12.3342857,2.21142857 L12.3342857,2.21142857 Z M4.10571429,11.2714286 L2.16857143,11.5542857 L2.44285714,9.61714286 L8.31428571,3.73714286 L9.97714286,5.4 L4.10571429,11.2714286 Z M11.4857143,3.89142857 L10.8257143,4.55142857 L9.16285714,2.88857143 L9.82285714,2.22857143 C9.93450262,2.11117339 10.0894193,2.04471406 10.2514286,2.04471406 C10.4134379,2.04471406 10.5683545,2.11117339 10.68,2.22857143 L11.5371429,3.08571429 C11.7388955,3.32460247 11.7162022,3.68013021 11.4857143,3.89142857 L11.4857143,3.89142857 Z" id="Shape"></path>
                        </g>
                    </g>
                </g>
            </g>
        </g>
    </g>
</svg>