<?xml version="1.0" encoding="UTF-8"?>
<svg width="12px" height="9px" viewBox="0 0 12 9" version="1.1" xmlns="http://www.w3.org/2000/svg" xmlns:xlink="http://www.w3.org/1999/xlink">
    <!-- Generator: Sketch 60.1 (88133) - https://sketch.com -->
    <title>Path</title>
    <desc>Created with Sketch.</desc>
    <g id="Page-1" stroke="none" stroke-width="1" fill="none" fill-rule="evenodd">
        <g id="Screen-9" transform="translate(-725.000000, -405.000000)" fill="#FFFFFF">
            <g id="Group-4" transform="translate(710.000000, 325.000000)">
                <g id="Group-5" transform="translate(9.000000, 72.000000)">
                    <g id="icon/check" transform="translate(6.000000, 8.000000)">
                        <g id="check">
                            <path d="M4.48916205,8.99988732 L4.48916205,8.99988732 C4.20956607,9.00407661 3.93995336,8.89130044 3.74025014,8.6866253 L0.310233593,5.14676447 C0.042673138,4.86697012 -0.0618211148,4.45916097 0.036112809,4.07695478 C0.134046733,3.69474859 0.41953034,3.39621157 0.78502472,3.29379973 C1.1505191,3.19138789 1.54049696,3.30066002 1.80805741,3.58045437 L4.48916205,6.35282325 L10.1808926,0.322529366 C10.5954869,-0.107509789 11.2641221,-0.107509789 11.6787164,0.322529366 C11.8838649,0.526546041 12,0.809634817 12,1.10568442 C12,1.40173401 11.8838649,1.68482279 11.6787164,1.88883947 L5.16318277,8.6866253 C4.9822077,8.87296835 4.74270267,8.98428219 4.48916205,8.99988732 Z" id="Path"></path>
                        </g>
                    </g>
                </g>
            </g>
        </g>
    </g>
</svg>